<svg width="50" height="50" viewBox="0 0 50 50" fill="none" xmlns="http://www.w3.org/2000/svg">
<circle cx="25" cy="25" r="25" fill="#08858D"/>
<path d="M30.5977 33H19.418V31.4414L25.3242 24.8789C26.1992 23.8867 26.8008 23.082 27.1289 22.4648C27.4648 21.8398 27.6328 21.1953 27.6328 20.5312C27.6328 19.6406 27.3633 18.9102 26.8242 18.3398C26.2852 17.7695 25.5664 17.4844 24.668 17.4844C23.5898 17.4844 22.75 17.793 22.1484 18.4102C21.5547 19.0195 21.2578 19.8711 21.2578 20.9648H19.0898C19.0898 19.3945 19.5938 18.125 20.6016 17.1562C21.6172 16.1875 22.9727 15.7031 24.668 15.7031C26.2539 15.7031 27.5078 16.1211 28.4297 16.957C29.3516 17.7852 29.8125 18.8906 29.8125 20.2734C29.8125 21.9531 28.7422 23.9531 26.6016 26.2734L22.0312 31.2305H30.5977V33Z" fill="black"/>
</svg>
