<svg width="50" height="50" viewBox="0 0 50 50" fill="none" xmlns="http://www.w3.org/2000/svg">
<circle cx="25" cy="25" r="25" fill="#08858D"/>
<path d="M22.5703 23.4141H24.1992C25.2227 23.3984 26.0273 23.1289 26.6133 22.6055C27.1992 22.082 27.4922 21.375 27.4922 20.4844C27.4922 18.4844 26.4961 17.4844 24.5039 17.4844C23.5664 17.4844 22.8164 17.7539 22.2539 18.293C21.6992 18.8242 21.4219 19.5312 21.4219 20.4141H19.2539C19.2539 19.0625 19.7461 17.9414 20.7305 17.0508C21.7227 16.1523 22.9805 15.7031 24.5039 15.7031C26.1133 15.7031 27.375 16.1289 28.2891 16.9805C29.2031 17.832 29.6602 19.0156 29.6602 20.5312C29.6602 21.2734 29.418 21.9922 28.9336 22.6875C28.457 23.3828 27.8047 23.9023 26.9766 24.2461C27.9141 24.543 28.6367 25.0352 29.1445 25.7227C29.6602 26.4102 29.918 27.25 29.918 28.2422C29.918 29.7734 29.418 30.9883 28.418 31.8867C27.418 32.7852 26.1172 33.2344 24.5156 33.2344C22.9141 33.2344 21.6094 32.8008 20.6016 31.9336C19.6016 31.0664 19.1016 29.9219 19.1016 28.5H21.2812C21.2812 29.3984 21.5742 30.1172 22.1602 30.6562C22.7461 31.1953 23.5312 31.4648 24.5156 31.4648C25.5625 31.4648 26.3633 31.1914 26.918 30.6445C27.4727 30.0977 27.75 29.3125 27.75 28.2891C27.75 27.2969 27.4453 26.5352 26.8359 26.0039C26.2266 25.4727 25.3477 25.1992 24.1992 25.1836H22.5703V23.4141Z" fill="black"/>
</svg>
