<svg width="125" height="125" viewBox="0 0 125 125" fill="none" xmlns="http://www.w3.org/2000/svg">
<rect width="125" height="125" fill="#00BCD4"/>
<path d="M56.9805 70V52.9375H62.5586C64.4102 52.9375 65.8008 53.3203 66.7305 54.0859C67.668 54.8516 68.1367 55.9844 68.1367 57.4844C68.1367 58.2812 67.9102 58.9883 67.457 59.6055C67.0039 60.2148 66.3867 60.6875 65.6055 61.0234C66.5273 61.2812 67.2539 61.7734 67.7852 62.5C68.3242 63.2188 68.5938 64.0781 68.5938 65.0781C68.5938 66.6094 68.0977 67.8125 67.1055 68.6875C66.1133 69.5625 64.7109 70 62.8984 70H56.9805ZM59.2305 62.0195V68.1602H62.9453C63.9922 68.1602 64.8164 67.8906 65.418 67.3516C66.0273 66.8047 66.332 66.0547 66.332 65.1016C66.332 63.0469 65.2148 62.0195 62.9805 62.0195H59.2305ZM59.2305 60.2148H62.6289C63.6133 60.2148 64.3984 59.9688 64.9844 59.4766C65.5781 58.9844 65.875 58.3164 65.875 57.4727C65.875 56.5352 65.6016 55.8555 65.0547 55.4336C64.5078 55.0039 63.6758 54.7891 62.5586 54.7891H59.2305V60.2148Z" fill="black"/>
</svg>
