<svg width="125" height="125" viewBox="0 0 125 125" fill="none" xmlns="http://www.w3.org/2000/svg">
<rect width="125" height="125" fill="#C528C8"/>
<path d="M56.9805 70V52.9375H61.7969C63.2812 52.9375 64.5938 53.2656 65.7344 53.9219C66.875 54.5781 67.7539 55.5117 68.3711 56.7227C68.9961 57.9336 69.3125 59.3242 69.3203 60.8945V61.9844C69.3203 63.5938 69.0078 65.0039 68.3828 66.2148C67.7656 67.4258 66.8789 68.3555 65.7227 69.0039C64.5742 69.6523 63.2344 69.9844 61.7031 70H56.9805ZM59.2305 54.7891V68.1602H61.5977C63.332 68.1602 64.6797 67.6211 65.6406 66.543C66.6094 65.4648 67.0938 63.9297 67.0938 61.9375V60.9414C67.0938 59.0039 66.6367 57.5 65.7227 56.4297C64.8164 55.3516 63.5273 54.8047 61.8555 54.7891H59.2305Z" fill="black"/>
</svg>
