<svg width="125" height="125" viewBox="0 0 125 125" fill="none" xmlns="http://www.w3.org/2000/svg">
<rect width="125" height="125" fill="#28C871"/>
<path d="M69.5312 64.5859C69.3203 66.3906 68.6523 67.7852 67.5273 68.7695C66.4102 69.7461 64.9219 70.2344 63.0625 70.2344C61.0469 70.2344 59.4297 69.5117 58.2109 68.0664C57 66.6211 56.3945 64.6875 56.3945 62.2656V60.625C56.3945 59.0391 56.6758 57.6445 57.2383 56.4414C57.8086 55.2383 58.6133 54.3164 59.6523 53.6758C60.6914 53.0273 61.8945 52.7031 63.2617 52.7031C65.0742 52.7031 66.5273 53.2109 67.6211 54.2266C68.7148 55.2344 69.3516 56.6328 69.5312 58.4219H67.2695C67.0742 57.0625 66.6484 56.0781 65.9922 55.4688C65.3438 54.8594 64.4336 54.5547 63.2617 54.5547C61.8242 54.5547 60.6953 55.0859 59.875 56.1484C59.0625 57.2109 58.6562 58.7227 58.6562 60.6836V62.3359C58.6562 64.1875 59.043 65.6602 59.8164 66.7539C60.5898 67.8477 61.6719 68.3945 63.0625 68.3945C64.3125 68.3945 65.2695 68.1133 65.9336 67.5508C66.6055 66.9805 67.0508 65.9922 67.2695 64.5859H69.5312Z" fill="black"/>
</svg>
